<svg xmlns="http://www.w3.org/2000/svg" viewBox="0 0 720 400" font-family="Segoe UI, system-ui, -apple-system, sans-serif">
  <defs>
    <linearGradient id="dbGrad" x1="0%" y1="0%" x2="0%" y2="100%">
      <stop offset="0%" style="stop-color:#4A90D9;stop-opacity:1"/>
      <stop offset="100%" style="stop-color:#357ABD;stop-opacity:1"/>
    </linearGradient>
    <linearGradient id="apiGrad" x1="0%" y1="0%" x2="0%" y2="100%">
      <stop offset="0%" style="stop-color:#6C5CE7;stop-opacity:1"/>
      <stop offset="100%" style="stop-color:#5A4BD1;stop-opacity:1"/>
    </linearGradient>
    <linearGradient id="winGrad" x1="0%" y1="0%" x2="0%" y2="100%">
      <stop offset="0%" style="stop-color:#0078D4;stop-opacity:1"/>
      <stop offset="100%" style="stop-color:#005A9E;stop-opacity:1"/>
    </linearGradient>
    <linearGradient id="linGrad" x1="0%" y1="0%" x2="0%" y2="100%">
      <stop offset="0%" style="stop-color:#E95420;stop-opacity:1"/>
      <stop offset="100%" style="stop-color:#C7401A;stop-opacity:1"/>
    </linearGradient>
    <linearGradient id="andGrad" x1="0%" y1="0%" x2="0%" y2="100%">
      <stop offset="0%" style="stop-color:#34A853;stop-opacity:1"/>
      <stop offset="100%" style="stop-color:#2D8F47;stop-opacity:1"/>
    </linearGradient>
    <filter id="shadow" x="-4%" y="-4%" width="108%" height="112%">
      <feDropShadow dx="0" dy="2" stdDeviation="3" flood-color="#000" flood-opacity="0.12"/>
    </filter>
  </defs>

  <!-- Connection lines -->
  <line x1="360" y1="95" x2="360" y2="155" stroke="#9B9FB5" stroke-width="2.5" stroke-dasharray="6,4"/>
  <line x1="360" y1="245" x2="150" y2="295" stroke="#9B9FB5" stroke-width="2.5" stroke-dasharray="6,4"/>
  <line x1="360" y1="245" x2="360" y2="295" stroke="#9B9FB5" stroke-width="2.5" stroke-dasharray="6,4"/>
  <line x1="360" y1="245" x2="570" y2="295" stroke="#9B9FB5" stroke-width="2.5" stroke-dasharray="6,4"/>

  <!-- Sync labels on lines -->
  <text x="270" y="278" font-size="10" fill="#9B9FB5" text-anchor="middle" transform="rotate(-13, 270, 278)">sync</text>
  <text x="360" y="278" font-size="10" fill="#9B9FB5" text-anchor="middle">sync</text>
  <text x="450" y="278" font-size="10" fill="#9B9FB5" text-anchor="middle" transform="rotate(13, 450, 278)">sync</text>

  <!-- MySQL Database -->
  <g filter="url(#shadow)">
    <rect x="260" y="20" width="200" height="75" rx="12" fill="url(#dbGrad)"/>
    <!-- Database icon -->
    <ellipse cx="310" cy="45" rx="12" ry="6" fill="none" stroke="#fff" stroke-width="1.5" opacity="0.9"/>
    <path d="M298 45 L298 58 Q310 64 322 58 L322 45" fill="none" stroke="#fff" stroke-width="1.5" opacity="0.9"/>
    <line x1="298" y1="51" x2="298" y2="51" stroke="#fff" stroke-width="1.5" opacity="0.5"/>
    <path d="M298 51 Q310 57 322 51" fill="none" stroke="#fff" stroke-width="1.5" opacity="0.5"/>
    <text x="345" y="50" font-size="15" font-weight="600" fill="#fff" text-anchor="start">MySQL</text>
    <text x="345" y="68" font-size="11" fill="#fff" fill-opacity="0.8" text-anchor="start">Database</text>
  </g>

  <!-- REST API -->
  <g filter="url(#shadow)">
    <rect x="235" y="155" width="250" height="90" rx="12" fill="url(#apiGrad)"/>
    <!-- API icon -->
    <circle cx="285" cy="188" r="14" fill="none" stroke="#fff" stroke-width="1.5" opacity="0.9"/>
    <path d="M279 188 L285 182 L291 188 M279 188 L285 194 L291 188" fill="none" stroke="#fff" stroke-width="1.5" opacity="0.9"/>
    <text x="310" y="188" font-size="16" font-weight="600" fill="#fff" text-anchor="start">ASP.NET Core API</text>
    <text x="310" y="208" font-size="11" fill="#fff" fill-opacity="0.8" text-anchor="start">REST + Dapper  |  Port 5000</text>
    <text x="310" y="224" font-size="11" fill="#fff" fill-opacity="0.8" text-anchor="start">Timestamp-based sync</text>
  </g>

  <!-- Windows Client -->
  <g filter="url(#shadow)">
    <rect x="50" y="295" width="200" height="85" rx="12" fill="url(#winGrad)"/>
    <!-- Windows icon (simplified) -->
    <rect x="82" y="318" rx="1" width="9" height="9" fill="#fff" fill-opacity="0.9"/>
    <rect x="93" y="318" rx="1" width="9" height="9" fill="#fff" fill-opacity="0.9"/>
    <rect x="82" y="329" rx="1" width="9" height="9" fill="#fff" fill-opacity="0.9"/>
    <rect x="93" y="329" rx="1" width="9" height="9" fill="#fff" fill-opacity="0.9"/>
    <text x="112" y="332" font-size="14" font-weight="600" fill="#fff" text-anchor="start">Windows</text>
    <text x="82" y="358" font-size="11" fill="#fff" fill-opacity="0.8">C# WinForms + Krypton</text>
  </g>

  <!-- Linux Client -->
  <g filter="url(#shadow)">
    <rect x="260" y="295" width="200" height="85" rx="12" fill="url(#linGrad)"/>
    <!-- Tux-inspired icon (simplified penguin) -->
    <circle cx="303" cy="323" r="9" fill="#fff" fill-opacity="0.9"/>
    <ellipse cx="303" cy="335" rx="7" ry="5" fill="#fff" fill-opacity="0.7"/>
    <text x="322" y="332" font-size="14" font-weight="600" fill="#fff" text-anchor="start">Linux</text>
    <text x="292" y="358" font-size="11" fill="#fff" fill-opacity="0.8">Vala + GTK4 + libadwaita</text>
  </g>

  <!-- Android Client -->
  <g filter="url(#shadow)">
    <rect x="470" y="295" width="200" height="85" rx="12" fill="url(#andGrad)"/>
    <!-- Android icon (simplified) -->
    <rect x="497" y="324" width="16" height="12" rx="3" fill="#fff" fill-opacity="0.9"/>
    <line x1="500" y1="322" x2="498" y2="318" stroke="#fff" stroke-width="1.5" opacity="0.9"/>
    <line x1="510" y1="322" x2="512" y2="318" stroke="#fff" stroke-width="1.5" opacity="0.9"/>
    <text x="522" y="332" font-size="14" font-weight="600" fill="#fff" text-anchor="start">Android</text>
    <text x="494" y="358" font-size="11" fill="#fff" fill-opacity="0.8">Kotlin + Room + Glance</text>
  </g>
</svg>
